<svg width="128" height="128" viewBox="0 0 128 128" fill="none" xmlns="http://www.w3.org/2000/svg">
  <defs>
    <linearGradient id="bellBody" x1="26" y1="20" x2="102" y2="90" gradientUnits="userSpaceOnUse">
      <stop stop-color="#FDE68A"/>
      <stop offset="1" stop-color="#F59E0B"/>
    </linearGradient>
    <radialGradient id="dotGrad" cx="0.35" cy="0.3" r="0.8">
      <stop stop-color="#FCA5A5"/>
      <stop offset="1" stop-color="#DC2626"/>
    </radialGradient>
    <filter id="bellShadow" x="-20%" y="-20%" width="140%" height="140%">
      <feGaussianBlur stdDeviation="3"/>
    </filter>
  </defs>

  <ellipse cx="64" cy="104" rx="32" ry="8" fill="#0F172A" fill-opacity="0.15" filter="url(#bellShadow)"/>

  <path d="M64 20C46 20 34 33 34 52V62L24 80C23 82 24 84 26 84H102C104 84 105 82 104 80L94 62V52C94 33 82 20 64 20Z" fill="url(#bellBody)"/>

  <path d="M64 20C60 20 57 17 57 14C57 11 60 8 64 8C68 8 71 11 71 14C71 17 68 20 64 20Z" fill="#D97706"/>

  <path d="M46 88C48 96 55 101 64 101C73 101 80 96 82 88" stroke="#92400E" stroke-width="6" stroke-linecap="round"/>

  <path d="M42 44C44 36 50 28 58 24" stroke="#FFFBEB" stroke-width="4.5" stroke-linecap="round" stroke-opacity="0.6"/>

  <circle cx="92" cy="30" r="13" fill="#FFFFFF"/>
  <circle cx="92" cy="30" r="10" fill="url(#dotGrad)"/>
</svg>
